<svg height="512" viewBox="0 0 512 512" width="512" xmlns="http://www.w3.org/2000/svg"><g id="Out_line" data-name="Out line"><path d="m280 16h-48a32 32 0 0 0 0 64h48a32 32 0 0 0 0-64zm0 48h-48a16 16 0 0 1 0-32h48a16 16 0 0 1 0 32z"/><path d="m280 120h-48a32 32 0 0 0 0 64h48a32 32 0 0 0 0-64zm0 48h-48a16 16 0 0 1 0-32h48a16 16 0 0 1 0 32z"/><path d="m280 224h-48a32 32 0 0 0 0 64h48a32 32 0 0 0 0-64zm0 48h-48a16 16 0 0 1 0-32h48a16 16 0 0 1 0 32z"/><path d="m280 328h-48a32 32 0 0 0 0 64h48a32 32 0 0 0 0-64zm0 48h-48a16 16 0 0 1 0-32h48a16 16 0 0 1 0 32z"/><path d="m280 432h-48a32 32 0 0 0 0 64h48a32 32 0 0 0 0-64zm0 48h-48a16 16 0 0 1 0-32h48a16 16 0 0 1 0 32z"/><path d="m248 88h16v24h-16z"/><path d="m248 192h16v24h-16z"/><path d="m248 296h16v24h-16z"/><path d="m248 400h16v24h-16z"/><path d="m416 24h-80v16h80a24.0275 24.0275 0 0 1 24 24v264a24.0275 24.0275 0 0 1 -24 24h-68.686l10.34327-10.34277-11.31446-11.31446-24 24a8.00122 8.00122 0 0 0 0 11.31446l24 24 11.31446-11.31446-10.34327-10.34277h68.686a40.04584 40.04584 0 0 0 40-40v-264a40.04584 40.04584 0 0 0 -40-40z"/><path d="m346.34277 181.65723 11.31446-11.31446-10.34323-10.34277h36.686a40.04584 40.04584 0 0 0 40-40v-24a40.04584 40.04584 0 0 0 -40-40h-48v16h48a24.0275 24.0275 0 0 1 24 24v24a24.0275 24.0275 0 0 1 -24 24h-36.686l10.34327-10.34277-11.31446-11.31446-24 24a8.00122 8.00122 0 0 0 0 11.31446z"/><path d="m165.65723 226.34277-11.31446 11.31446 10.34323 10.34277h-36.686a40.04584 40.04584 0 0 0 -40 40v40a40.04584 40.04584 0 0 0 40 40h48v-16h-48a24.0275 24.0275 0 0 1 -24-24v-40a24.0275 24.0275 0 0 1 24-24h36.686l-10.34327 10.34277 11.31446 11.31446 24-24a8.00122 8.00122 0 0 0 0-11.31446z"/><path d="m165.65723 122.34277-11.31446 11.31446 10.34323 10.34277h-68.686a40.04584 40.04584 0 0 0 -40 40v248a40.04584 40.04584 0 0 0 40 40h80v-16h-80a24.0275 24.0275 0 0 1 -24-24v-248a24.0275 24.0275 0 0 1 24-24h68.686l-10.34327 10.34277 11.31446 11.31446 24-24a8.00122 8.00122 0 0 0 0-11.31446z"/></g></svg>